<?xml version="1.0" encoding="UTF-8"?>
<svg version="1.1" xmlns="http://www.w3.org/2000/svg" width="512" height="512">
<path d="M0 0 C0.63808594 0.268125 1.27617187 0.53625 1.93359375 0.8125 C14.08405326 6.00952823 25.45986836 12.65273825 36.90283203 19.22509766 C66.32581253 38.82115514 66.32581253 38.82115514 99.25 43.125 C100.87808594 42.78686279 100.87808594 42.78686279 102.5390625 42.44189453 C111.99360851 40.3960238 121.1959978 37.65431711 130.4387207 34.82080078 C139.24385633 32.14720521 147.85933636 30.06590797 157 29 C158.46373047 28.79503906 158.46373047 28.79503906 159.95703125 28.5859375 C191.86372007 26.17620156 242.84231002 56.05096681 267 76 C274.85767843 83.12542166 274.85767843 83.12542166 275.2734375 88.6015625 C276.63753864 134.15026828 264.57727618 181.34073575 255.90753174 225.7428894 C255.43035414 228.19137233 254.95744119 230.64069052 254.48895264 233.09085083 C253.8343474 236.49989468 253.16039122 239.90452117 252.48046875 243.30859375 C252.28906815 244.32069916 252.09766754 245.33280457 251.90046692 246.37557983 C250.84735524 251.52490851 249.92279735 255.22791118 246 259 C242.6747946 260.6626027 239.3595216 260.34959127 235.8125 259.4375 C233.56878397 257.65800108 232.78876594 255.70125434 231.80859375 253.046875 C230.71354763 250.27487421 229.34220448 247.65954076 228 245 C227.36892334 246.65370605 227.36892334 246.65370605 226.72509766 248.34082031 C212.1529714 286.48025729 196.78694436 324.23943669 180.8125 361.8125 C180.32263611 362.96602966 179.83277222 364.11955933 179.32806396 365.30804443 C176.24878551 372.55188784 173.14444798 379.78419768 170 387 C169.46484772 388.2326358 169.46484772 388.2326358 168.91888428 389.49017334 C167.98407853 391.62867673 167.03351015 393.75910909 166.07421875 395.88671875 C165.56850342 397.01682373 165.06278809 398.14692871 164.54174805 399.3112793 C162.94538592 402.09524385 161.77191731 403.42517625 159 405 C154.9695124 405.58625274 152.89372223 405.62013379 149.51171875 403.2734375 C145.45817269 398.92329051 144.64778327 392.72055645 143.25 387.125 C142.90720492 385.81613857 142.5621007 384.50788003 142.21484375 383.20019531 C141.4913594 380.47436018 140.77372526 377.74710383 140.06054688 375.01855469 C134.65306119 354.43097435 128.20891211 334.17247953 121.625 313.9375 C121.27034668 312.84344849 120.91569336 311.74939697 120.55029297 310.62219238 C119.53134797 307.48453556 118.50529655 304.34930299 117.4765625 301.21484375 C117.17062164 300.27239304 116.86468079 299.32994232 116.54946899 298.3589325 C115.0058969 293.68839052 113.34918814 289.32502795 111 285 C110.70820862 285.59468582 110.41641724 286.18937164 110.11578369 286.80207825 C107.0779069 292.98841621 104.02599353 299.16767954 100.96582031 305.34301758 C99.82548029 307.64884741 98.68873617 309.95645921 97.55566406 312.26586914 C95.9267389 315.58434058 94.28500567 318.89619674 92.640625 322.20703125 C92.13629944 323.2414888 91.63197388 324.27594635 91.11236572 325.3417511 C90.6321698 326.3025206 90.15197388 327.2632901 89.65722656 328.25317383 C89.0310141 329.52225334 89.0310141 329.52225334 88.39215088 330.81697083 C86.43583792 333.88466149 84.38466919 335.68046096 80.81640625 336.50390625 C79.70072266 336.53291016 79.70072266 336.53291016 78.5625 336.5625 C77.45068359 336.62630859 77.45068359 336.62630859 76.31640625 336.69140625 C72.31625019 335.49743049 69.9902991 331.77815915 68.0186615 328.2379303 C67.11158037 326.33846165 66.26948989 324.42288436 65.44921875 322.484375 C65.14554886 321.78733459 64.84187897 321.09029419 64.52900696 320.37213135 C63.8950798 318.91190743 63.2659147 317.44960759 62.64135742 315.98535156 C61.68240602 313.73806233 60.70872532 311.49761063 59.73242188 309.2578125 C59.116328 307.83370486 58.5010634 306.40923811 57.88671875 304.984375 C57.59617111 304.31355896 57.30562347 303.64274292 57.00627136 302.95159912 C55 298.2339032 55 298.2339032 55 296 C54.34 296 53.68 296 53 296 C52.89308838 296.83023682 52.78617676 297.66047363 52.67602539 298.51586914 C51.91348741 302.44587256 50.63132362 306.03129418 49.18359375 309.74609375 C48.89599686 310.49634323 48.60839996 311.24659271 48.31208801 312.01957703 C47.36044716 314.49480443 46.39958948 316.96631662 45.4375 319.4375 C45.10431763 320.29800964 44.77113525 321.15851929 44.42785645 322.04510498 C36.90113527 341.48012645 29.02865792 360.76766158 21 380 C20.44475647 381.33091675 20.44475647 381.33091675 19.8782959 382.6887207 C9.27574426 408.09007856 -1.55907798 433.38295734 -12.70645142 458.55004883 C-14.95520064 463.62840037 -17.18973397 468.71271605 -19.4131012 473.80223083 C-20.87960242 477.15674321 -22.35223526 480.50854151 -23.82608032 483.85983276 C-24.51705489 485.43435255 -25.20557421 487.00995245 -25.89144897 488.58670044 C-26.83470841 490.7536557 -27.78729222 492.91627721 -28.7421875 495.078125 C-29.01431564 495.70945847 -29.28644379 496.34079193 -29.56681824 496.99125671 C-31.26153061 500.7960996 -33.17871265 503.92847734 -36 507 C-38.21875 507.62890625 -38.21875 507.62890625 -40.5 507.5625 C-41.2528125 507.56378906 -42.005625 507.56507813 -42.78125 507.56640625 C-45.81980031 506.79071999 -46.92986155 505.33638781 -49 503 C-50.44116211 500.51171875 -50.44116211 500.51171875 -51.77734375 497.6875 C-52.28386475 496.62684326 -52.79038574 495.56618652 -53.31225586 494.47338867 C-53.84858643 493.32717041 -54.38491699 492.18095215 -54.9375 491 C-55.51182991 489.78787276 -56.08679328 488.57604548 -56.66235352 487.36450195 C-58.4548161 483.58249975 -60.22918708 479.79217755 -62 476 C-62.81597656 474.25468994 -62.81597656 474.25468994 -63.6484375 472.47412109 C-66.89245573 465.52420766 -70.11421072 458.5641227 -73.33203125 451.60205078 C-75.89714773 446.06257061 -78.47894496 440.53091949 -81.06219482 434.99987793 C-81.93235827 433.13601344 -82.80151145 431.27168094 -83.67041016 429.40722656 C-86.42131461 423.50677921 -89.18049989 417.6105127 -91.96305847 411.72491455 C-93.26846399 408.96251781 -94.56984043 406.19823199 -95.87088013 403.43377686 C-96.49278174 402.11531722 -97.11666663 400.79779104 -97.74264526 399.48126221 C-98.61074589 397.65522812 -99.47154681 395.82572916 -100.33203125 393.99609375 C-100.82421143 392.95638428 -101.3163916 391.9166748 -101.82348633 390.84545898 C-102.91538617 388.20464292 -103.55864281 385.81466253 -104 383 C-104.64066406 383.3609375 -105.28132812 383.721875 -105.94140625 384.09375 C-115.30394894 389.11687276 -115.30394894 389.11687276 -121 388 C-125.85816648 384.10587593 -127.417039 380.17743804 -129.1875 374.4375 C-129.47592773 373.53531738 -129.76435547 372.63313477 -130.06152344 371.70361328 C-137.81896298 346.96005611 -144.1773832 321.77485027 -150.50878906 296.63818359 C-150.73503464 295.74260742 -150.96128021 294.84703125 -151.19438171 293.92431641 C-151.62002695 292.23784146 -152.0436417 290.55085234 -152.46492004 288.86328125 C-153.44534736 284.83078337 -153.44534736 284.83078337 -155 281 C-156.21264506 283.831557 -157.42113811 286.66470609 -158.625 289.5 C-158.98746826 290.35335938 -159.34993652 291.20671875 -159.72338867 292.0859375 C-162.35086692 298.32569206 -164.79317662 304.61155437 -167.00830078 311.00976562 C-169.13247976 316.94565714 -169.13247976 316.94565714 -172 319 C-177.44817236 320.42902882 -177.44817236 320.42902882 -180 320 C-185.98292749 316.06516905 -187.57172805 312.01511748 -189.59375 305.296875 C-190.05657379 303.84361313 -190.05657379 303.84361313 -190.52874756 302.36099243 C-191.54012576 299.16348039 -192.52092016 295.95753655 -193.5 292.75 C-194.20318846 290.49271665 -194.90730476 288.23572215 -195.61230469 285.97900391 C-197.78109588 278.99780295 -199.89970059 272.00207971 -202 265 C-202.320896 263.93060181 -202.64179199 262.86120361 -202.97241211 261.75939941 C-214.22928594 224.12973791 -224.84623009 186.12269992 -232.125 147.5 C-232.26388641 146.7639856 -232.40277283 146.02797119 -232.54586792 145.26965332 C-241.67369968 96.31475494 -241.67369968 96.31475494 -232.2421875 81.90234375 C-231.50226563 80.94457031 -230.76234375 79.98679687 -230 79 C-229.39720215 78.20940186 -229.39720215 78.20940186 -228.78222656 77.40283203 C-225.70788839 73.42503893 -222.41514642 69.68672864 -219 66 C-218.52401367 65.48018555 -218.04802734 64.96037109 -217.55761719 64.42480469 C-204.92916596 50.76895404 -190.49715164 39.71502794 -171.65673828 37.16235352 C-163.05402061 35.88235324 -158.68738836 30.86912251 -153.4375 24.5 C-145.23340249 14.61670124 -145.23340249 14.61670124 -140 12 C-129.11074178 11.16858155 -118.83472674 12.94927836 -108.1875 14.9375 C-105.14015557 15.49293046 -102.09169679 16.04206423 -99.04296875 16.58984375 C-98.3243869 16.71982254 -97.60580505 16.84980133 -96.865448 16.98371887 C-91.91407881 17.86873764 -87.00816616 18.54994536 -82 19 C-81.0925 19.10183594 -80.185 19.20367188 -79.25 19.30859375 C-72.23419307 19.71054102 -68.28750468 17.45648063 -63 13 C-61.43258506 11.52604251 -59.8703063 10.0466091 -58.3125 8.5625 C-41.75213295 -6.75583952 -20.16365841 -8.61199373 0 0 Z " fill="#5FA716" transform="translate(237,5)"/>
<path d="M0 0 C0.29214701 6.13508721 -0.20252514 11.7750401 -1.33984375 17.80078125 C-1.61733962 19.32017338 -1.89359037 20.83979335 -2.16870117 22.35961914 C-2.30859467 23.13161652 -2.44848816 23.90361389 -2.59262085 24.69900513 C-3.22604703 28.27677879 -3.79576448 31.86379265 -4.359375 35.453125 C-4.58683295 36.89381164 -4.81437329 38.33448527 -5.04199219 39.77514648 C-5.15716187 40.50450409 -5.27233154 41.23386169 -5.39099121 41.98532104 C-7.64041989 56.1750399 -10.08979066 70.3190115 -12.75 84.4375 C-12.97278625 85.63046692 -12.97278625 85.63046692 -13.20007324 86.84753418 C-13.62317187 89.10637091 -14.05252511 91.36391558 -14.484375 93.62109375 C-14.72897461 94.9042749 -14.97357422 96.18745605 -15.22558594 97.50952148 C-15.94986524 100.77403006 -16.87778551 103.85277548 -18 107 C-18.70576172 106.38511719 -18.70576172 106.38511719 -19.42578125 105.7578125 C-20.04839844 105.21898437 -20.67101562 104.68015625 -21.3125 104.125 C-21.92738281 103.59132813 -22.54226563 103.05765625 -23.17578125 102.5078125 C-26.03550446 100.14410124 -27.69868066 99.03834973 -31.4375 98.5625 C-35.08349808 98.63083361 -35.08349808 98.63083361 -37.09448242 101.17016602 C-39.02566596 104.03811584 -40.04269329 106.41996665 -41.05078125 109.71484375 C-41.41099365 110.85501953 -41.77120605 111.99519531 -42.14233398 113.16992188 C-42.52848877 114.41322266 -42.91464355 115.65652344 -43.3125 116.9375 C-53.45962098 148.59827835 -66.85029155 179.19059148 -79.61553955 209.86000061 C-81.77606235 215.05093791 -83.92814001 220.24518365 -86.06811523 225.44462585 C-87.2822068 228.39219311 -88.50165255 231.33752202 -89.72259521 234.28225708 C-90.27760515 235.62384365 -90.83042181 236.96633991 -91.38092041 238.30978394 C-92.12401541 240.12185187 -92.87617637 241.93019439 -93.62890625 243.73828125 C-94.04213135 244.73899658 -94.45535645 245.73971191 -94.88110352 246.77075195 C-96 249 -96 249 -98 250 C-98.16622864 249.38472443 -98.33245728 248.76944885 -98.50372314 248.13552856 C-103.09999429 231.21232708 -108.24852936 214.52394663 -113.75 197.875 C-114.33794846 196.08778534 -114.33794846 196.08778534 -114.93777466 194.26446533 C-119.65459177 179.92807815 -124.41478562 165.60751441 -129.4375 151.375 C-129.86708008 150.15151855 -130.29666016 148.92803711 -130.73925781 147.66748047 C-131.13338867 146.56807129 -131.52751953 145.46866211 -131.93359375 144.3359375 C-132.4294397 142.95220947 -132.4294397 142.95220947 -132.93530273 141.54052734 C-134.91520942 136.46984533 -134.91520942 136.46984533 -138.8671875 133.1171875 C-139.86105469 132.99730469 -139.86105469 132.99730469 -140.875 132.875 C-141.53242188 132.76929688 -142.18984375 132.66359375 -142.8671875 132.5546875 C-146.21902553 133.25452181 -147.96493849 135.39363121 -150 138 C-152.19012248 141.70876931 -154.06903747 145.5562835 -155.95703125 149.42578125 C-156.50485764 150.52850876 -157.05268402 151.63123627 -157.61711121 152.76737976 C-159.35838032 156.27782369 -161.08558457 159.79497636 -162.8125 163.3125 C-163.99208851 165.69958909 -165.17484563 168.08509084 -166.35742188 170.47070312 C-169.24886935 176.30861779 -172.12881123 182.15209748 -175 188 C-175.66 188 -176.32 188 -177 188 C-177.43344727 186.95658447 -177.86689453 185.91316895 -178.31347656 184.83813477 C-179.93752756 180.92946888 -181.56303701 177.02141088 -183.18896484 173.11352539 C-183.88955194 171.42911798 -184.58975494 169.74455075 -185.28955078 168.05981445 C-186.30137309 165.62407958 -187.3146221 163.18894224 -188.328125 160.75390625 C-188.78931732 159.64239952 -188.78931732 159.64239952 -189.25982666 158.50843811 C-190.16517295 156.33547025 -191.08104604 154.1672449 -192 152 C-192.34591187 151.17112274 -192.69182373 150.34224548 -193.04821777 149.48825073 C-193.39678833 148.67220367 -193.74535889 147.85615662 -194.10449219 147.01538086 C-194.5768631 145.89829994 -194.5768631 145.89829994 -195.05877686 144.75865173 C-195.8785045 142.82009576 -195.8785045 142.82009576 -198 142 C-202.98021013 141.38535108 -202.98021013 141.38535108 -207.4465332 143.02514648 C-209.77580202 145.98624273 -210.69613756 149.38365089 -211.828125 152.92578125 C-212.37755949 154.58627723 -212.92729672 156.24667307 -213.47729492 157.90698242 C-213.90901505 159.22573868 -213.90901505 159.22573868 -214.34945679 160.57113647 C-221.12472886 181.19589215 -228.76896675 201.38160294 -236.9699707 221.47564697 C-238.02454947 224.06016482 -239.07590938 226.64597636 -240.12695312 229.23193359 C-257.71250333 272.44740411 -276.16095718 315.31715784 -295 358 C-295.66 358 -296.32 358 -297 358 C-297.48073975 356.96335205 -297.48073975 356.96335205 -297.97119141 355.90576172 C-304.27925075 342.30561255 -310.59614258 328.70965845 -316.9375 315.125 C-317.22542419 314.50808289 -317.51334839 313.89116577 -317.80999756 313.2555542 C-320.7812222 306.88941229 -323.7542368 300.52411492 -326.73199463 294.161026 C-332.47012742 281.89865042 -338.19990686 269.63302727 -343.8125 257.3125 C-344.43463379 255.94931641 -344.43463379 255.94931641 -345.06933594 254.55859375 C-345.63249512 253.31722656 -345.63249512 253.31722656 -346.20703125 252.05078125 C-346.5316333 251.33575439 -346.85623535 250.62072754 -347.19067383 249.8840332 C-348 248 -348 248 -349 245 C-355.32976675 243.9617181 -359.32004677 243.53661388 -365 247 C-365.99 247 -366.98 247 -368 247 C-372.94970632 231.45996094 -377.72835244 215.96393052 -381.49560547 200.08740234 C-382.23607885 197.02300378 -383.05309729 193.98094726 -383.875 190.9375 C-385.72281283 184.04545616 -387.56332921 177.15164955 -389.375 170.25 C-389.67559326 169.10708496 -389.97618652 167.96416992 -390.28588867 166.78662109 C-391.86832109 160.67938793 -393.33753335 154.56694956 -394.64453125 148.39453125 C-394.90508301 147.16637695 -395.16563477 145.93822266 -395.43408203 144.67285156 C-395.92679846 142.31177231 -396.40620581 139.9478664 -396.87060547 137.58105469 C-397.09248535 136.5140332 -397.31436523 135.44701172 -397.54296875 134.34765625 C-397.8217688 132.94012085 -397.8217688 132.94012085 -398.10620117 131.50415039 C-399.1802707 128.49493675 -400.57163544 127.04114517 -403 125 C-405.86253073 124.02116245 -408.10722873 124.1731018 -411 125 C-415.79416202 130.26960117 -418.5543504 137.9998924 -421.5625 144.375 C-422.26536133 145.84066406 -422.26536133 145.84066406 -422.98242188 147.3359375 C-425.89858945 153.47008579 -428.56281925 159.66037167 -431 166 C-433.21013546 162.68479681 -434.27476976 159.45078072 -435.4375 155.6875 C-435.68556396 154.89351807 -435.93362793 154.09953613 -436.18920898 153.28149414 C-439.09421036 143.86765738 -441.82217353 134.40027106 -444.5625 124.9375 C-444.90944412 123.73956314 -444.90944412 123.73956314 -445.26339722 122.51742554 C-448.40177104 111.66653937 -451.4627615 100.79580558 -454.47122192 89.90823364 C-455.17048036 87.38477714 -455.87994563 84.86423132 -456.58984375 82.34375 C-463.93947997 56.06555842 -470.30030687 29.20013402 -473 2 C-472.33137939 2.36641602 -471.66275879 2.73283203 -470.97387695 3.11035156 C-441.67715661 19.13267449 -411.88790519 32.69806413 -380.4765625 44 C-361.33464981 50.95624586 -347.15507322 64.08371374 -332.53369141 77.85571289 C-320.1242031 90.43851733 -320.1242031 90.43851733 -304.625 97.625 C-292.75145133 95.57783644 -283.40614366 82.93326427 -275.9296875 74.22265625 C-252.84516478 47.6333983 -252.84516478 47.6333983 -243.68359375 46.640625 C-239.48794254 47.04995683 -235.93347272 48.17636928 -232.0625 49.75 C-231.3003418 50.05147949 -230.53818359 50.35295898 -229.75292969 50.66357422 C-222.90359507 53.45813548 -216.33766763 56.76862015 -209.75 60.125 C-190.90110085 69.9935254 -190.90110085 69.9935254 -170 71 C-153.5203876 65.49940259 -140.36144439 47.35761204 -129.40234375 34.5859375 C-128.70818359 33.80089844 -128.70818359 33.80089844 -128 33 C-127.54753906 32.41476563 -127.09507812 31.82953125 -126.62890625 31.2265625 C-125 30 -125 30 -122.7878418 30.2434082 C-119.55128718 31.12177608 -116.77713246 32.40077073 -113.765625 33.87890625 C-113.17468048 34.16695129 -112.58373596 34.45499634 -111.97488403 34.75177002 C-110.71503262 35.36654599 -109.45640336 35.98383186 -108.19891357 36.60342407 C-106.235656 37.56955879 -104.26821317 38.52661675 -102.29931641 39.48120117 C-96.74658579 42.17587457 -91.20404534 44.88800922 -85.6953125 47.671875 C-73.80075176 53.86684781 -73.80075176 53.86684781 -60.82421875 53.30859375 C-42.57618656 44.26797817 -27.37422281 26.54303822 -13.25 12.25 C-10.94556612 9.91902026 -8.63782912 7.59138119 -6.328125 5.265625 C-5.80534973 4.73455139 -5.28257446 4.20347778 -4.74395752 3.65631104 C-1.11271379 0 -1.11271379 0 0 0 Z " fill="#90552C" transform="translate(492,124)"/>
<path d="M0 0 C0.63808594 0.268125 1.27617187 0.53625 1.93359375 0.8125 C14.08405326 6.00952823 25.45986836 12.65273825 36.90283203 19.22509766 C66.32581253 38.82115514 66.32581253 38.82115514 99.25 43.125 C100.87808594 42.78686279 100.87808594 42.78686279 102.5390625 42.44189453 C111.99360851 40.3960238 121.1959978 37.65431711 130.4387207 34.82080078 C139.24385633 32.14720521 147.85933636 30.06590797 157 29 C158.46373047 28.79503906 158.46373047 28.79503906 159.95703125 28.5859375 C191.86372007 26.17620156 242.84231002 56.05096681 267 76 C274.85767843 83.12542166 274.85767843 83.12542166 275.2734375 88.6015625 C276.63753864 134.15026828 264.57727618 181.34073575 255.90753174 225.7428894 C255.43035414 228.19137233 254.95744119 230.64069052 254.48895264 233.09085083 C253.8343474 236.49989468 253.16039122 239.90452117 252.48046875 243.30859375 C252.28906815 244.32069916 252.09766754 245.33280457 251.90046692 246.37557983 C250.84735524 251.52490851 249.92279735 255.22791118 246 259 C242.6747946 260.6626027 239.3595216 260.34959127 235.8125 259.4375 C233.56878397 257.65800108 232.78876594 255.70125434 231.80859375 253.046875 C230.71354763 250.27487421 229.34220448 247.65954076 228 245 C227.36892334 246.65370605 227.36892334 246.65370605 226.72509766 248.34082031 C212.1529714 286.48025729 196.78694436 324.23943669 180.8125 361.8125 C180.32263611 362.96602966 179.83277222 364.11955933 179.32806396 365.30804443 C176.24878551 372.55188784 173.14444798 379.78419768 170 387 C169.46484772 388.2326358 169.46484772 388.2326358 168.91888428 389.49017334 C167.98407853 391.62867673 167.03351015 393.75910909 166.07421875 395.88671875 C165.56850342 397.01682373 165.06278809 398.14692871 164.54174805 399.3112793 C162.94538592 402.09524385 161.77191731 403.42517625 159 405 C154.9695124 405.58625274 152.89372223 405.62013379 149.51171875 403.2734375 C145.45817269 398.92329051 144.64778327 392.72055645 143.25 387.125 C142.90720492 385.81613857 142.5621007 384.50788003 142.21484375 383.20019531 C141.4913594 380.47436018 140.77372526 377.74710383 140.06054688 375.01855469 C134.65306119 354.43097435 128.20891211 334.17247953 121.625 313.9375 C121.27034668 312.84344849 120.91569336 311.74939697 120.55029297 310.62219238 C119.53134797 307.48453556 118.50529655 304.34930299 117.4765625 301.21484375 C117.17062164 300.27239304 116.86468079 299.32994232 116.54946899 298.3589325 C115.0058969 293.68839052 113.34918814 289.32502795 111 285 C110.70820862 285.59468582 110.41641724 286.18937164 110.11578369 286.80207825 C107.0779069 292.98841621 104.02599353 299.16767954 100.96582031 305.34301758 C99.82548029 307.64884741 98.68873617 309.95645921 97.55566406 312.26586914 C95.9267389 315.58434058 94.28500567 318.89619674 92.640625 322.20703125 C92.13629944 323.2414888 91.63197388 324.27594635 91.11236572 325.3417511 C90.6321698 326.3025206 90.15197388 327.2632901 89.65722656 328.25317383 C89.0310141 329.52225334 89.0310141 329.52225334 88.39215088 330.81697083 C86.43583792 333.88466149 84.38466919 335.68046096 80.81640625 336.50390625 C79.70072266 336.53291016 79.70072266 336.53291016 78.5625 336.5625 C77.45068359 336.62630859 77.45068359 336.62630859 76.31640625 336.69140625 C72.31625019 335.49743049 69.9902991 331.77815915 68.0186615 328.2379303 C67.11158037 326.33846165 66.26948989 324.42288436 65.44921875 322.484375 C65.14554886 321.78733459 64.84187897 321.09029419 64.52900696 320.37213135 C63.8950798 318.91190743 63.2659147 317.44960759 62.64135742 315.98535156 C61.68240602 313.73806233 60.70872532 311.49761063 59.73242188 309.2578125 C59.116328 307.83370486 58.5010634 306.40923811 57.88671875 304.984375 C57.59617111 304.31355896 57.30562347 303.64274292 57.00627136 302.95159912 C55 298.2339032 55 298.2339032 55 296 C54.34 296 53.68 296 53 296 C52.89308838 296.83023682 52.78617676 297.66047363 52.67602539 298.51586914 C51.91348741 302.44587256 50.63132362 306.03129418 49.18359375 309.74609375 C48.89599686 310.49634323 48.60839996 311.24659271 48.31208801 312.01957703 C47.36044716 314.49480443 46.39958948 316.96631662 45.4375 319.4375 C45.10431763 320.29800964 44.77113525 321.15851929 44.42785645 322.04510498 C36.90113527 341.48012645 29.02865792 360.76766158 21 380 C20.44475647 381.33091675 20.44475647 381.33091675 19.8782959 382.6887207 C9.27574426 408.09007856 -1.55907798 433.38295734 -12.70645142 458.55004883 C-14.95520064 463.62840037 -17.18973397 468.71271605 -19.4131012 473.80223083 C-20.87960242 477.15674321 -22.35223526 480.50854151 -23.82608032 483.85983276 C-24.51705489 485.43435255 -25.20557421 487.00995245 -25.89144897 488.58670044 C-26.83470841 490.7536557 -27.78729222 492.91627721 -28.7421875 495.078125 C-29.01431564 495.70945847 -29.28644379 496.34079193 -29.56681824 496.99125671 C-31.26153061 500.7960996 -33.17871265 503.92847734 -36 507 C-38.21875 507.62890625 -38.21875 507.62890625 -40.5 507.5625 C-41.2528125 507.56378906 -42.005625 507.56507813 -42.78125 507.56640625 C-45.81980031 506.79071999 -46.92986155 505.33638781 -49 503 C-50.44116211 500.51171875 -50.44116211 500.51171875 -51.77734375 497.6875 C-52.28386475 496.62684326 -52.79038574 495.56618652 -53.31225586 494.47338867 C-53.84858643 493.32717041 -54.38491699 492.18095215 -54.9375 491 C-55.51182991 489.78787276 -56.08679328 488.57604548 -56.66235352 487.36450195 C-58.4548161 483.58249975 -60.22918708 479.79217755 -62 476 C-62.81597656 474.25468994 -62.81597656 474.25468994 -63.6484375 472.47412109 C-66.89245573 465.52420766 -70.11421072 458.5641227 -73.33203125 451.60205078 C-75.89714773 446.06257061 -78.47894496 440.53091949 -81.06219482 434.99987793 C-81.93235827 433.13601344 -82.80151145 431.27168094 -83.67041016 429.40722656 C-86.42131461 423.50677921 -89.18049989 417.6105127 -91.96305847 411.72491455 C-93.26846399 408.96251781 -94.56984043 406.19823199 -95.87088013 403.43377686 C-96.49278174 402.11531722 -97.11666663 400.79779104 -97.74264526 399.48126221 C-98.61074589 397.65522812 -99.47154681 395.82572916 -100.33203125 393.99609375 C-100.82421143 392.95638428 -101.3163916 391.9166748 -101.82348633 390.84545898 C-102.91538617 388.20464292 -103.55864281 385.81466253 -104 383 C-104.64066406 383.3609375 -105.28132812 383.721875 -105.94140625 384.09375 C-115.30394894 389.11687276 -115.30394894 389.11687276 -121 388 C-125.85816648 384.10587593 -127.417039 380.17743804 -129.1875 374.4375 C-129.47592773 373.53531738 -129.76435547 372.63313477 -130.06152344 371.70361328 C-137.81896298 346.96005611 -144.1773832 321.77485027 -150.50878906 296.63818359 C-150.73503464 295.74260742 -150.96128021 294.84703125 -151.19438171 293.92431641 C-151.62002695 292.23784146 -152.0436417 290.55085234 -152.46492004 288.86328125 C-153.44534736 284.83078337 -153.44534736 284.83078337 -155 281 C-156.21264506 283.831557 -157.42113811 286.66470609 -158.625 289.5 C-158.98746826 290.35335938 -159.34993652 291.20671875 -159.72338867 292.0859375 C-162.35086692 298.32569206 -164.79317662 304.61155437 -167.00830078 311.00976562 C-169.13247976 316.94565714 -169.13247976 316.94565714 -172 319 C-177.44817236 320.42902882 -177.44817236 320.42902882 -180 320 C-185.98292749 316.06516905 -187.57172805 312.01511748 -189.59375 305.296875 C-190.05657379 303.84361313 -190.05657379 303.84361313 -190.52874756 302.36099243 C-191.54012576 299.16348039 -192.52092016 295.95753655 -193.5 292.75 C-194.20318846 290.49271665 -194.90730476 288.23572215 -195.61230469 285.97900391 C-197.78109588 278.99780295 -199.89970059 272.00207971 -202 265 C-202.320896 263.93060181 -202.64179199 262.86120361 -202.97241211 261.75939941 C-214.22928594 224.12973791 -224.84623009 186.12269992 -232.125 147.5 C-232.26388641 146.7639856 -232.40277283 146.02797119 -232.54586792 145.26965332 C-241.67369968 96.31475494 -241.67369968 96.31475494 -232.2421875 81.90234375 C-231.50226563 80.94457031 -230.76234375 79.98679687 -230 79 C-229.39720215 78.20940186 -229.39720215 78.20940186 -228.78222656 77.40283203 C-225.70788839 73.42503893 -222.41514642 69.68672864 -219 66 C-218.52401367 65.48018555 -218.04802734 64.96037109 -217.55761719 64.42480469 C-204.92916596 50.76895404 -190.49715164 39.71502794 -171.65673828 37.16235352 C-163.05402061 35.88235324 -158.68738836 30.86912251 -153.4375 24.5 C-145.23340249 14.61670124 -145.23340249 14.61670124 -140 12 C-129.11074178 11.16858155 -118.83472674 12.94927836 -108.1875 14.9375 C-105.14015557 15.49293046 -102.09169679 16.04206423 -99.04296875 16.58984375 C-98.3243869 16.71982254 -97.60580505 16.84980133 -96.865448 16.98371887 C-91.91407881 17.86873764 -87.00816616 18.54994536 -82 19 C-81.0925 19.10183594 -80.185 19.20367188 -79.25 19.30859375 C-72.23419307 19.71054102 -68.28750468 17.45648063 -63 13 C-61.43258506 11.52604251 -59.8703063 10.0466091 -58.3125 8.5625 C-41.75213295 -6.75583952 -20.16365841 -8.61199373 0 0 Z M-50.171875 25.0546875 C-58.18546254 32.58518643 -66.81920745 37.23569523 -78 37 C-87.39748192 36.51339899 -96.61933137 35.10224517 -105.875 33.45703125 C-106.65758682 33.3186937 -107.44017365 33.18035614 -108.24647522 33.03782654 C-112.22379137 32.33187025 -116.19666273 31.60791691 -120.16577148 30.85717773 C-121.65082186 30.58676334 -123.13592701 30.31664956 -124.62109375 30.046875 C-125.30578735 29.91162918 -125.99048096 29.77638336 -126.69592285 29.63703918 C-129.49684137 29.13850973 -131.57628711 28.86036225 -134.30615234 29.76000977 C-137.08407936 31.79360609 -139.06560537 34.51048685 -141.1875 37.1875 C-149.48539963 47.2872372 -157.18908869 53.20112482 -170.3125 54.8125 C-183.04432986 56.65854207 -191.78001227 64.66395251 -201 73 C-201.66902344 73.59683594 -202.33804688 74.19367188 -203.02734375 74.80859375 C-206.84238345 78.40819591 -210.1134666 82.46587132 -213.375 86.5625 C-213.81674561 87.10503418 -214.25849121 87.64756836 -214.71362305 88.20654297 C-217.44119737 91.72692369 -218.94983617 94.50406689 -219 99 C-204.01846942 124.08019194 -144.37318641 139.50254933 -118.46484375 148.609375 C-101.42496504 154.62625884 -88.56466497 164.83495968 -75.32421875 176.890625 C-73.27957665 178.74626657 -71.21215851 180.56756376 -69.125 182.375 C-66.70081211 184.47761195 -64.32295878 186.62003008 -61.9765625 188.80859375 C-61.44401855 189.30375488 -60.91147461 189.79891602 -60.36279297 190.30908203 C-59.30862047 191.29176357 -58.25799765 192.27827055 -57.21142578 193.26904297 C-54.6304694 195.67253193 -52.27782298 197.64984911 -49 199 C-43.46189808 193.55202993 -37.9893913 188.11622423 -32.92578125 182.21875 C-6.75825292 152.07036036 -6.75825292 152.07036036 7.30859375 149.36328125 C22.08034055 148.60876524 35.28014571 156.44504002 48.02099609 162.99316406 C63.76432374 171.81636075 63.76432374 171.81636075 81 174 C93.21307506 167.61589258 102.86664107 155.03196183 111.6875 144.6875 C121.17166399 133.73718505 121.17166399 133.73718505 126.78515625 132.65625 C141.74676822 131.62972431 157.21109861 142.45565815 170.11474609 149.11181641 C179.15729598 154.18363201 179.15729598 154.18363201 189 157 C192.21484794 155.52665321 194.45996493 153.43597404 197 151 C198.66625299 149.52036735 200.33293853 148.0412217 202 146.5625 C202.763125 145.86253906 203.52625 145.16257813 204.3125 144.44140625 C205.7313238 143.15250382 207.15526835 141.86826924 208.61694336 140.62817383 C214.98578688 135.20510652 220.85435615 129.2968725 226.75463867 123.37573242 C228.55862085 121.56639067 230.36788665 119.76245681 232.17773438 117.95898438 C237.99531266 112.14505941 243.72931354 106.32309535 249 100 C250.11375 98.69095703 250.11375 98.69095703 251.25 97.35546875 C251.8275 96.64003906 252.405 95.92460938 253 95.1875 C253.598125 94.45917969 254.19625 93.73085937 254.8125 92.98046875 C255.204375 92.32691406 255.59625 91.67335938 256 91 C254.6794648 87.0383944 252.3170258 86.05331752 248.875 84.0625 C247.88886719 83.48314697 247.88886719 83.48314697 246.8828125 82.89208984 C194.36375957 51.51870724 194.36375957 51.51870724 136.0859375 51.3125 C130.66937153 52.78186044 125.33201917 54.43925172 120 56.1875 C104.83021668 61.13482575 87.60313677 65.94086587 72.48046875 58.7890625 C71.33191406 58.19867188 70.18335938 57.60828125 69 57 C67.92032959 56.46004395 67.92032959 56.46004395 66.81884766 55.90917969 C56.44403132 50.71436245 46.35852784 45.09576561 36.375 39.1875 C-6.62700755 10.76438565 -6.62700755 10.76438565 -50.171875 25.0546875 Z M252.66299438 120.23020935 C252.0943869 120.80706985 251.52577942 121.38393036 250.93994141 121.97827148 C250.29481598 122.62992783 249.64969055 123.28158417 248.98501587 123.95298767 C248.28097626 124.66846268 247.57693665 125.38393768 246.8515625 126.12109375 C245.35561901 127.6297063 243.85951993 129.13816459 242.36328125 130.64648438 C240.00719707 133.02717708 237.6527066 135.4093946 235.30126953 137.79467773 C218.57220231 154.74952514 218.57220231 154.74952514 209 162 C208.41476562 162.4539917 207.82953125 162.9079834 207.2265625 163.37573242 C205.89602017 164.3964373 204.54317429 165.38791918 203.1875 166.375 C202.33542969 167.00148437 201.48335938 167.62796875 200.60546875 168.2734375 C199.74566406 168.84320313 198.88585937 169.41296875 198 170 C197.12988281 170.59039062 196.25976562 171.18078125 195.36328125 171.7890625 C188.24875232 174.35062344 181.9702087 172.6458561 175.2779541 169.62103271 C171.73593264 167.93528778 168.24150352 166.16247813 164.75 164.375 C163.33808462 163.66628276 161.9253267 162.95924146 160.51171875 162.25390625 C158.41169356 161.20498584 156.31176468 160.15589717 154.2130127 159.10443115 C152.14301006 158.06760261 150.07170796 157.03341639 148 156 C147.29721924 155.64812622 146.59443848 155.29625244 145.87036133 154.93371582 C143.82072202 153.9140929 141.76348558 152.91180913 139.703125 151.9140625 C139.08588562 151.60415375 138.46864624 151.294245 137.83270264 150.97494507 C135.31643736 149.77298886 133.50855942 148.95001132 130.69506836 149.2265625 C124.90493371 151.86852514 120.61730368 158.40709703 116.75 163.25 C108.6986804 173.21039539 100.32224519 181.78021399 89 188 C88.36578125 188.37898438 87.7315625 188.75796875 87.078125 189.1484375 C79.07379378 192.42840781 69.50961552 190.07556888 61.81201172 187.05102539 C53.83392599 183.69247527 46.16910234 179.62183649 38.45874023 175.69970703 C23.96570904 168.00005207 23.96570904 168.00005207 8 166 C5.87493599 166.91189261 5.87493599 166.91189261 4.1875 168.4375 C3.17429688 169.27474609 3.17429688 169.27474609 2.140625 170.12890625 C1.43421875 170.74636719 0.7278125 171.36382812 0 172 C-0.72703125 172.60714844 -1.4540625 173.21429688 -2.203125 173.83984375 C-12.4595438 182.68685401 -21.53175772 192.93696001 -30.3840332 203.1628418 C-35.83335978 209.35806501 -40.87853023 214.91661216 -49.25 216.6875 C-61.04279437 214.5254877 -69.9341484 203.71065927 -78.19921875 195.73291016 C-94.46654542 180.07869585 -110.29354649 168.14635943 -131.68115234 160.68017578 C-158.93923968 151.13010024 -185.47004767 139.29882227 -210.55078125 124.9609375 C-213.01520136 123.5598742 -215.46041013 122.24877356 -218 121 C-215.70295681 143.99486856 -210.56258857 166.61065996 -205 189 C-204.7407373 190.04414063 -204.48147461 191.08828125 -204.21435547 192.1640625 C-197.47771703 219.05795197 -189.14585091 245.50852055 -181 272 C-180.69349518 272.99679779 -180.69349518 272.99679779 -180.38079834 274.01373291 C-179.25451147 277.67602087 -178.12756733 281.33810609 -177 285 C-175.11757126 282.17635689 -173.78672765 279.49174585 -172.390625 276.40625 C-171.88273437 275.2925 -171.37484375 274.17875 -170.8515625 273.03125 C-169.79827484 270.70887917 -168.74615778 268.385977 -167.6953125 266.0625 C-158.99037447 246.99037447 -158.99037447 246.99037447 -156 244 C-148.77381135 243.40768946 -148.77381135 243.40768946 -146.00048828 245.53051758 C-143.39276161 248.74959925 -142.70760474 251.97385242 -141.88671875 255.9375 C-141.71157242 256.72192474 -141.53642609 257.50634949 -141.35597229 258.31454468 C-140.98154031 259.99855235 -140.61369819 261.68403628 -140.25183105 263.37078857 C-139.49110998 266.91497867 -138.69802448 270.45167055 -137.90658569 273.98910522 C-137.50751451 275.7742436 -137.11007693 277.55974795 -136.71426392 279.34561157 C-132.94498398 296.32946037 -128.70957836 313.19999955 -123.64453125 329.84521484 C-122.36192586 334.13319785 -121.15743322 338.44386047 -119.9375 342.75 C-117.72575044 350.53315448 -115.43394905 358.28294976 -113 366 C-109.39843837 365.36234204 -109.39843837 365.36234204 -106.0625 363.9375 C-102.65682835 362.38946743 -99.39791254 362.88350729 -95.75 363.1875 C-93.11735085 364.40980139 -93.00280146 366.32858356 -92 369 C-91.1634033 370.85847878 -90.31334366 372.71093002 -89.453125 374.55859375 C-88.94571777 375.65002686 -88.43831055 376.74145996 -87.91552734 377.8659668 C-87.36590332 379.04457275 -86.8162793 380.22317871 -86.25 381.4375 C-85.66477141 382.69501955 -85.07964995 383.95258896 -84.49462891 385.21020508 C-81.01838228 392.68026811 -77.53195095 400.14557714 -74.04541016 407.61083984 C-73.21855713 409.38128662 -73.21855713 409.38128662 -72.375 411.1875 C-72.09694519 411.78282532 -71.81889038 412.37815063 -71.53240967 412.99151611 C-66.38897143 424.00561771 -61.26628147 435.02931171 -56.15264893 446.05728149 C-55.30909631 447.87638198 -54.46531028 449.69537426 -53.62127686 451.51425171 C-52.43166078 454.07816323 -51.24303218 456.64253024 -50.0546875 459.20703125 C-49.70418335 459.96214996 -49.3536792 460.71726868 -48.99255371 461.49526978 C-46.61006724 466.64099135 -44.28953317 471.81227709 -42 477 C-41.34 477 -40.68 477 -40 477 C-20.3448356 432.62025652 -1.08217174 388.0467331 17 343 C17.49439575 341.77011353 17.49439575 341.77011353 17.9987793 340.51538086 C26.59687489 319.10564895 34.75996734 297.62447021 41.9284668 275.68920898 C42.18216034 274.92296707 42.43585388 274.15672516 42.69723511 273.36726379 C43.16818049 271.94307469 43.63177856 270.51642558 44.0864563 269.08695984 C45.19692726 265.74118394 46.10508636 263.13548888 49 261 C50.9375 260.6015625 50.9375 260.6015625 53 260.625 C53.680625 260.61726562 54.36125 260.60953125 55.0625 260.6015625 C57.58509281 261.1203215 58.32265906 262.06920257 60 264 C60.99942017 265.85913086 60.99942017 265.85913086 61.88525391 267.96484375 C62.2221524 268.75576416 62.5590509 269.54668457 62.90615845 270.36157227 C63.25939178 271.21162842 63.61262512 272.06168457 63.9765625 272.9375 C64.34727875 273.81398193 64.717995 274.69046387 65.09994507 275.59350586 C66.28183396 278.3928328 67.45337438 281.19636429 68.625 284 C69.42122924 285.88829326 70.21809691 287.77631745 71.015625 289.6640625 C72.47200249 293.119532 73.92739782 296.57538711 75.37353516 300.03515625 C75.80963608 301.07748413 75.80963608 301.07748413 76.25454712 302.14086914 C76.89505819 303.73827915 77.45575987 305.36727962 78 307 C78.66 307 79.32 307 80 307 C80.31684753 306.35520187 80.63369507 305.71040375 80.96014404 305.04606628 C83.95092609 298.96423138 86.95137263 292.88725358 89.96268845 286.81556225 C91.51042582 283.69401728 93.05439521 280.57072561 94.58984375 277.44311523 C96.35607533 273.84583039 98.13850483 270.25678829 99.921875 266.66796875 C100.74398468 264.98503975 100.74398468 264.98503975 101.58270264 263.26811218 C102.10294006 262.22725967 102.62317749 261.18640717 103.15917969 260.11401367 C103.61218445 259.19690109 104.06518921 258.27978851 104.53192139 257.33488464 C106.09993346 254.84106226 107.50659446 253.53973086 110 252 C112.94304029 251.47692057 115.23819735 251.89153011 118 253 C119.15383911 254.56095886 119.15383911 254.56095886 120.05126953 256.53198242 C120.3819342 257.25598236 120.71259888 257.9799823 121.05328369 258.72592163 C122.55619316 262.33601462 123.9050646 265.97935777 125.1796875 269.67578125 C125.46918777 270.50263428 125.75868805 271.3294873 126.05696106 272.18139648 C127.00253205 274.88964426 127.93930575 277.60082532 128.875 280.3125 C129.19892731 281.2459726 129.52285461 282.17944519 129.8565979 283.14120483 C134.94782492 297.81652235 139.87503579 312.54355464 144.6875 327.3125 C144.97904968 328.20570953 145.27059937 329.09891907 145.57098389 330.01919556 C149.76951513 342.90630018 153.83503524 355.81264682 157 369 C159.96944236 367.51527882 160.25709694 365.43076076 161.51171875 362.38671875 C162.26594116 360.57192017 162.26594116 360.57192017 163.03540039 358.72045898 C163.58622098 357.37618878 164.13691706 356.03186755 164.6875 354.6875 C165.26424903 353.29278384 165.84165456 351.89833899 166.41967773 350.50415039 C167.64896751 347.53718765 168.87478289 344.56881985 170.09863281 341.59960938 C171.97438111 337.0545177 173.87145703 332.51854056 175.7734375 327.984375 C186.24690931 303.00325778 196.48748923 277.95165541 205.9375 252.5625 C206.2071759 251.83932587 206.47685181 251.11615173 206.75469971 250.37106323 C207.53642229 248.27072795 208.31445231 246.16908666 209.08984375 244.06640625 C209.33704163 243.39639084 209.5842395 242.72637543 209.83892822 242.03605652 C211.08560637 238.62224085 212.27400673 235.19885769 213.38330078 231.73779297 C213.71473839 230.70802589 213.71473839 230.70802589 214.0528717 229.65745544 C214.6533385 227.77188323 215.24033924 225.88203779 215.82641602 223.99194336 C216.92910291 221.18074555 217.58160764 219.7470597 220 218 C223.1875 217.375 223.1875 217.375 227 218 C229.30133173 219.63253316 231.27902629 221.40494698 233.30078125 223.37109375 C234.91813704 225.08245147 234.91813704 225.08245147 237 226 C240.58246656 212.77589338 243.05946586 199.42217681 245.4375 185.9375 C245.8331742 183.71157472 246.2289268 181.48566337 246.62475586 179.25976562 C247.76235886 172.842009 248.8849242 166.42170587 250 160 C250.15376099 159.1156427 250.30752197 158.2312854 250.46594238 157.32012939 C251.35108206 152.21655508 252.21502911 147.10996622 253.0625 142 C253.26609131 140.79980225 253.46968262 139.59960449 253.67944336 138.36303711 C254.73208489 131.84612155 255.25983558 125.60112764 255 119 C253.8198368 118.88714909 253.8198368 118.88714909 252.66299438 120.23020935 Z " fill="#010000" transform="translate(237,5)"/>
<path d="M0 0 C15.58892359 16.68788165 19.07547641 45.36283722 23.43359375 66.7265625 C23.61438477 67.58217773 23.79517578 68.43779297 23.98144531 69.31933594 C28.34884553 90.09704713 26.79158678 107.55174034 15.59716797 125.96044922 C11.07159831 132.82951572 5.25914715 139.79197998 -2.56640625 142.7265625 C-7.02825219 143.60864078 -10.74015934 143.76736163 -14.7734375 141.46875 C-32.0105894 127.29671307 -40.67644712 98.20889006 -42.8671875 76.78515625 C-42.97059716 53.65586253 -40.34535575 22.58110693 -24.4140625 4.25 C-17.69488568 -1.83104271 -8.21570534 -6.6791021 0 0 Z " fill="#000000" transform="translate(323.56640625,369.2734375)"/>
<path d="M0 0 C5.71099927 3.3403958 8.20561027 8.13268009 11 14 C11.41121094 14.85207031 11.82242188 15.70414062 12.24609375 16.58203125 C17.77589949 28.8991998 25.21995066 48.41603662 21.12890625 61.86328125 C17.21400046 71.96502177 12.15334404 79.6996578 2.48828125 84.96484375 C-1.45166079 86.60390912 -3.7610686 86.70648857 -8 86 C-18.54407079 81.05074228 -23.7555392 68.68424926 -28.0390625 58.5390625 C-32.89907326 44.86744345 -29.99104721 29.05945338 -24.76171875 15.87890625 C-19.63015522 5.18682496 -12.6290299 -2.34180687 0 0 Z " fill="#000000" transform="translate(482,324)"/>
<path d="M0 0 C9.50788792 4.05669884 15.23614646 11.72782402 19.8359375 20.64453125 C22.71263485 28.93675616 22.01670558 36.23630019 19.9375 44.625 C19.70925537 45.57922852 19.48101074 46.53345703 19.24584961 47.51660156 C16.06451439 60.34515576 12.17672812 75.4473352 2.125 84.625 C-2.53626001 86.67595441 -6.29249704 86.81428661 -11.078125 85.375 C-17.9068176 82.45586423 -21.39251268 77.52667578 -24.41015625 70.90625 C-25.72172103 67.63307375 -26.89630953 64.34855523 -28 61 C-28.24878906 60.27296875 -28.49757813 59.5459375 -28.75390625 58.796875 C-32.40429677 45.82905413 -30.59521197 32.01498149 -25 20 C-24.53078125 18.989375 -24.0615625 17.97875 -23.578125 16.9375 C-18.74220418 7.36965665 -11.93679763 -2.08730887 0 0 Z " fill="#000000" transform="translate(47,341)"/>
<path d="M0 0 C4.44746807 2.22373403 6.22744647 8.00000464 8.04272461 12.38012695 C12.31019407 25.5665116 5.39062999 37.48494628 0.04150391 49.37548828 C-2.1225663 54.21809303 -4.09824068 59.12756687 -6.05078125 64.05859375 C-20.90733706 101.51151895 -36.87537218 138.50205728 -52.90136719 175.46557617 C-54.63329271 179.46093593 -56.36344219 183.45706446 -58.09375 187.453125 C-61.06020621 194.30307894 -64.02901321 201.15200965 -67 208 C-67.66 208 -68.32 208 -69 208 C-70.53885628 205.28820736 -71.96291744 202.52961993 -73.375 199.75 C-74.02275391 198.61304688 -74.02275391 198.61304688 -74.68359375 197.453125 C-76.42736996 193.90646153 -77.42888813 191.39330313 -76.23706055 187.52148438 C-75.23239822 185.57394707 -74.17264481 183.65450014 -73.08007812 181.75488281 C-70.43026952 177.14299975 -68.42383982 172.26482136 -66.34765625 167.375 C-65.71809776 165.90575577 -65.71809776 165.90575577 -65.07582092 164.40682983 C-63.73395356 161.27295176 -62.39792031 158.13663017 -61.0625 155 C-60.12239821 152.79797856 -59.18221171 150.59599329 -58.24194336 148.39404297 C-37.37987814 99.48783494 -17.01528144 50.39764312 0 0 Z " fill="#6C4021" transform="translate(264,274)"/>
<path d="M0 0 C12.43228117 18.64842176 15.97001826 46.30605991 19 68 C19.12052734 68.82105225 19.24105469 69.64210449 19.36523438 70.48803711 C20.86656512 81.80113082 16.68314288 92.466967 10.12109375 101.62109375 C8.45187881 103.78264279 6.75418595 105.90710955 5 108 C2 107 2 107 0.1328125 103.859375 C-0.54885216 102.49570864 -1.21735261 101.12540996 -1.875 99.75 C-2.22651123 99.02780273 -2.57802246 98.30560547 -2.94018555 97.56152344 C-6.00391373 91.17389278 -8.73269502 84.71603217 -11 78 C-11.3196875 77.07445312 -11.639375 76.14890625 -11.96875 75.1953125 C-18.12515503 54.61695864 -14.16146072 25.30012405 -4.6015625 6.20703125 C-3.24019663 3.9839916 -1.85328653 1.85328653 0 0 Z " fill="#6B4021" transform="translate(313,385)"/>
<path d="M0 0 C4.81534222 4.00976185 8.82045865 7.53516331 12 13 C11.33789166 19.15971047 8.55753922 25.10038122 6.4375 30.875 C6.20002045 31.52259277 5.96254089 32.17018555 5.71786499 32.83740234 C-4.11664328 59.56611727 -15.41308563 85.75356113 -26.50854492 111.9765625 C-26.8199794 112.71304016 -27.13141388 113.44951782 -27.45228577 114.20831299 C-28.06308405 115.65197231 -28.67466852 117.0952993 -29.28709412 118.53826904 C-30.87587953 122.29241067 -32.43205044 126.0569187 -33.94873047 129.84082031 C-34.26599594 130.62792389 -34.58326141 131.41502747 -34.91014099 132.22598267 C-35.51731933 133.73662889 -36.11886692 135.2495539 -36.71400452 136.76498413 C-38.77764886 141.88882443 -38.77764886 141.88882443 -41 143 C-45.48083857 135.34490714 -48.50300125 126.49738591 -46.45379639 117.63879395 C-42.71268477 105.32967928 -36.80231989 93.66027058 -31.3359375 82.04833984 C-28.27984393 75.51552611 -25.63431027 68.86185969 -23.0625 62.125 C-22.4288855 60.49268433 -22.4288855 60.49268433 -21.7824707 58.82739258 C-20.51346982 55.55468028 -19.25566305 52.27785066 -18 49 C-17.53513184 47.79182617 -17.07026367 46.58365234 -16.59130859 45.33886719 C-10.81155156 30.31181536 -5.19808208 15.23942836 0 0 Z " fill="#6C4021" transform="translate(435,231)"/>
<path d="M0 0 C0.29214701 6.13508721 -0.20252514 11.7750401 -1.33984375 17.80078125 C-1.61733962 19.32017338 -1.89359037 20.83979335 -2.16870117 22.35961914 C-2.37854141 23.5176152 -2.37854141 23.5176152 -2.59262085 24.69900513 C-3.22604703 28.27677879 -3.79576448 31.86379265 -4.359375 35.453125 C-4.58683295 36.89381164 -4.81437329 38.33448527 -5.04199219 39.77514648 C-5.15716187 40.50450409 -5.27233154 41.23386169 -5.39099121 41.98532104 C-7.64041989 56.1750399 -10.08979066 70.3190115 -12.75 84.4375 C-12.97278625 85.63046692 -12.97278625 85.63046692 -13.20007324 86.84753418 C-13.62317187 89.10637091 -14.05252511 91.36391558 -14.484375 93.62109375 C-14.72897461 94.9042749 -14.97357422 96.18745605 -15.22558594 97.50952148 C-15.94986524 100.77403006 -16.87778551 103.85277548 -18 107 C-18.47050781 106.59007812 -18.94101562 106.18015625 -19.42578125 105.7578125 C-20.04839844 105.21898437 -20.67101562 104.68015625 -21.3125 104.125 C-21.92738281 103.59132813 -22.54226563 103.05765625 -23.17578125 102.5078125 C-26.42329429 99.8235726 -28.88302059 98.66761828 -33 98 C-32.05520353 91.40865523 -31.0065075 84.86123017 -29.65625 78.33984375 C-27.866626 69.53757926 -26.30703187 60.69732644 -24.78295898 51.84570312 C-24.46735958 50.02056574 -24.14830595 48.19602254 -23.82592773 46.37207031 C-23.35179509 43.68938337 -22.88769414 41.00512723 -22.42578125 38.3203125 C-22.28207596 37.51699493 -22.13837067 36.71367737 -21.99031067 35.88601685 C-21.31734728 31.90506787 -20.98200403 28.28411818 -21.18212891 24.24584961 C-21.23319203 20.88670535 -21.07751637 20.12170746 -19.17993164 17.14233398 C-17.93264282 15.95619507 -17.93264282 15.95619507 -16.66015625 14.74609375 C-15.76232422 13.87275391 -14.86449219 12.99941406 -13.93945312 12.09960938 C-12.99005859 11.22111328 -12.04066406 10.34261719 -11.0625 9.4375 C-10.11697266 8.52419922 -9.17144531 7.61089844 -8.19726562 6.66992188 C-1.23799785 0 -1.23799785 0 0 0 Z " fill="#6C4021" transform="translate(492,124)"/>
<path d="M0 0 C7.14968907 2.73817879 9.5141107 8.59601283 12.64453125 15.2109375 C15.85206488 22.44000122 16.87596725 29.24857842 15.9375 37.125 C14.12946596 40.19865786 13.07710536 41.55519732 9.9375 43.125 C7.125 43.5625 7.125 43.5625 3.9375 43.125 C-1.53770477 38.76972348 -1.67363061 34.1671758 -2.46484375 27.46875 C-3.34892032 22.52254383 -5.41518995 16.77231005 -9.0625 13.125 C-9.85805621 6.30594676 -9.85805621 6.30594676 -7.93359375 3.44921875 C-5.36522887 1.06861945 -3.48895067 0.14240615 0 0 Z " fill="#010300" transform="translate(385.0625,67.875)"/>
<path d="M0 0 C6.86124508 4.54907001 10.60040765 12.26102941 12.890625 20.015625 C13.41274973 22.68592006 13.77167695 25.28972087 14 28 C14.06960937 28.75410156 14.13921875 29.50820312 14.2109375 30.28515625 C14.42606554 34.71182938 13.74654247 37.51400379 11 41 C7.94306678 42.52846661 5.37015453 42.23242445 2 42 C-0.14453125 40.9453125 -0.14453125 40.9453125 -2 39 C-2.60456114 36.48148677 -3.00707169 34.17802138 -3.3125 31.625 C-4.39296905 24.2674406 -6.64311341 19.17236315 -10.671875 12.8671875 C-12.29075881 9.37230303 -12.05734962 7.65452879 -11 4 C-7.96424026 -0.43687962 -5.1906441 -0.72851145 0 0 Z " fill="#010200" transform="translate(131,60)"/>
<path d="M0 0 C4.40612923 1.40316894 6.02044943 4.78329668 8.125 8.625 C8.47755859 9.26308594 8.83011719 9.90117188 9.19335938 10.55859375 C13.91895862 19.33087816 15.45617752 27.97952416 14 38 C11.40942084 41.47308415 10.4465981 41.92911141 6.0625 42.625 C2.63088703 42.41372532 1.93877155 41.95179888 -0.9375 39.6875 C-2.99810143 36.78914585 -3.24531572 34.5118503 -3.375 31 C-3.63251239 24.50891187 -6.37688484 19.77962172 -9.50390625 14.26171875 C-11.09473723 10.793458 -11.47355727 8.76185385 -11 5 C-7.72846952 0.57381171 -5.48700963 -0.8172142 0 0 Z " fill="#010300" transform="translate(250,94)"/>
<path d="M0 0 C3.34265205 1.20706879 3.94704566 1.92056849 6 5 C6.70913358 10.31850183 5.1352481 12.7898097 2 17 C-0.13153445 20.15467098 -1.32599941 22.99745047 -2.375 26.625 C-3.38502933 29.78660223 -3.79861175 30.8251102 -6.375 33.0625 C-9.30900499 34.11035893 -10.93000236 34.61399953 -14 34 C-16.99431229 32.00379181 -18.65000667 30.42870413 -19.5234375 26.86328125 C-20.10323792 18.29051783 -15.95251657 10.99963 -10.984375 4.26953125 C-7.48715522 0.26975823 -5.18122926 -0.42295749 0 0 Z " fill="#020300" transform="translate(429,77)"/>
<path d="M0 0 C2.1640625 0.4140625 2.1640625 0.4140625 4.7265625 2.5390625 C6.4077334 5.9014043 6.5222779 7.69234407 6.1640625 11.4140625 C4.703125 13.90625 4.703125 13.90625 2.7890625 16.2890625 C0.39523041 19.46807151 -1.22862384 21.8638613 -1.9609375 25.7890625 C-2.8359375 29.4140625 -2.8359375 29.4140625 -5.0234375 31.9140625 C-8.62190014 33.83324257 -10.81119453 33.99947966 -14.8359375 33.4140625 C-17.2734375 31.9765625 -17.2734375 31.9765625 -18.8359375 29.4140625 C-20.08585171 22.31227722 -18.24732574 15.18926868 -14.40625 9.17578125 C-12.94412563 7.18627372 -11.45500157 5.27767271 -9.8359375 3.4140625 C-9.37058594 2.85460937 -8.90523437 2.29515625 -8.42578125 1.71875 C-5.79175592 -0.44283344 -3.28480892 -0.11769674 0 0 Z " fill="#010200" transform="translate(172.8359375,68.5859375)"/>
<path d="M0 0 C3.6875 0.875 3.6875 0.875 6.1875 2.375 C8.30787553 5.90895921 8.66122171 8.93683663 7.6875 12.875 C6.33949426 14.97941022 4.8199929 16.81505523 3.20703125 18.72265625 C1.02297405 21.81626941 0.31746974 25.01057446 -0.4765625 28.67578125 C-1.54174311 31.4781022 -2.74490166 32.38155289 -5.3125 33.875 C-9.67052608 34.5088947 -11.58164026 34.37260663 -15.25 31.875 C-17.87822251 28.05213089 -18.11900889 25.30304401 -17.3125 20.875 C-15.31619623 12.85038419 -9.3892491 0.49139995 0 0 Z " fill="#010300" transform="translate(290.3125,102.125)"/>
<path d="M0 0 C-2.61427305 2.6190611 -5.23318818 5.23280715 -7.8671875 7.83203125 C-12.77302801 12.68535536 -17.59653174 17.53936677 -22.08203125 22.7890625 C-24.73253011 25.84442371 -27.45484074 28.83063338 -30.1875 31.8125 C-30.69925781 32.37638428 -31.21101562 32.94026855 -31.73828125 33.52124023 C-34.31523277 36.32460258 -36.84578798 38.85453359 -40 41 C-42.31 39.02 -44.62 37.04 -47 35 C-42.16375008 28.16199101 -36.66195663 22.29536624 -30.75 16.375 C-29.85925781 15.45976562 -28.96851563 14.54453125 -28.05078125 13.6015625 C-19.63312092 5.14725052 -12.11759752 -1.75900609 0 0 Z " fill="#529213" transform="translate(227,163)"/>
<path d="M0 0 C4.07990188 2.86695808 6.25067735 5.30444972 8 10 C8.64883553 21.76367018 3.69314912 35.24087583 -1 46 C-1.99 46.495 -1.99 46.495 -3 47 C-3.81974263 44.96123051 -4.6304807 42.91883925 -5.4375 40.875 C-5.88996094 39.73804688 -6.34242187 38.60109375 -6.80859375 37.4296875 C-7.91741627 34.23773284 -8.57005798 31.34245244 -9 28 C-9.09023438 27.30777344 -9.18046875 26.61554688 -9.2734375 25.90234375 C-9.75312889 16.62216032 -5.60425486 7.26477482 0 0 Z " fill="#693F20" transform="translate(43,360)"/>
<path d="M0 0 C7.48639346 6.70170066 10.11586002 21.1600599 11.35546875 30.75 C11.58618984 37.25413732 9.2524412 42.19289256 5 47 C4.34 47 3.68 47 3 47 C-3.79905648 35.86047442 -7.26206069 26.14048873 -5 13 C-3.83828078 8.45343869 -2.07908808 4.20272804 0 0 Z " fill="#693F20" transform="translate(475,344)"/>
<path d="M0 0 C-4.24448153 5.92946666 -8.87135588 11.32590261 -13.875 16.625 C-14.54402344 17.34945312 -15.21304687 18.07390625 -15.90234375 18.8203125 C-20.66409613 23.88483527 -25.71909609 28.85954805 -32 32 C-33.71233688 31.9129796 -35.42175406 31.75902838 -37.125 31.5625 C-38.03507812 31.46066406 -38.94515625 31.35882813 -39.8828125 31.25390625 C-40.58148438 31.17011719 -41.28015625 31.08632812 -42 31 C-38.96997286 27.37874805 -35.93217419 23.87118461 -32.5625 20.5625 C-27.97793993 16.04925531 -23.57366258 11.36049387 -20 6 C-19.34 6 -18.68 6 -18 6 C-17.79375 5.4225 -17.5875 4.845 -17.375 4.25 C-12.78074032 -3.26787948 -7.37429296 -2.03411367 0 0 Z " fill="#529113" transform="translate(350,147)"/>
<path d="M0 0 C5.76830276 1.29479299 10.93675115 3.05664225 16.3125 5.5 C17.08811279 5.8496582 17.86372559 6.19931641 18.6628418 6.55957031 C33.16115075 13.19352588 46.99391915 21.06032859 60.796875 29.015625 C68.4788294 33.43751749 76.23989583 37.71725631 84 42 C79.6354217 43.36515597 76.75941987 42.10385185 72.6875 40.375 C71.94822266 40.06506104 71.20894531 39.75512207 70.44726562 39.43579102 C60.93860045 35.29482603 52.05731222 29.99206149 43.1015625 24.79101562 C37.76188688 21.70758833 32.38106973 18.69792559 27 15.6875 C25.95400635 15.10137939 24.9080127 14.51525879 23.83032227 13.91137695 C15.94191878 9.50110772 8.00655839 5.19205171 0 1 C0 0.67 0 0.34 0 0 Z " fill="#508E13" transform="translate(216,17)"/>
</svg>
